<svg width="24" height="24" viewBox="0 0 24 24" fill="none" xmlns="http://www.w3.org/2000/svg">
<g clip-path="url(#clip0_184_11477)">
<g clip-path="url(#clip1_184_11477)">
<path d="M10.2893 2.00273H15.4826C15.556 2.00001 15.6267 2.02994 15.6784 2.08163C15.7301 2.13331 15.7573 2.20405 15.7546 2.2775C15.6812 6.61928 11.4019 7.31298 11.3611 7.32115C11.3475 7.32115 11.3339 7.32115 11.3203 7.32115H5.83325C5.7598 7.32115 5.68634 7.29122 5.63738 7.23409C5.58297 7.17696 5.55576 7.10351 5.56393 7.02734C5.92846 2.67468 10.2485 2.00818 10.2893 2.00273Z" fill="white"/>
<path d="M19.7627 9.46484H1.27204C1.12242 9.46484 1 9.58454 1 9.73689V14.6989C1 14.6989 1.16867 22.9663 9.37072 22.9663C15.5651 22.9663 17.181 18.2518 17.5973 15.9449H19.7627C21.55 15.9449 23.0027 14.4922 23.0027 12.7049C23.0027 10.9175 21.55 9.46756 19.7627 9.46756V9.46484ZM19.6865 14.2582C18.8187 14.2582 18.1141 13.5536 18.1141 12.6831C18.1141 11.8126 18.8187 11.108 19.6865 11.108C20.5543 11.108 21.2589 11.8126 21.2589 12.6831C21.2589 13.5536 20.5543 14.2582 19.6865 14.2582Z" fill="white"/>
</g>
</g>
<defs>
<clipPath id="clip0_184_11477">
<rect width="22" height="20.9662" fill="white" transform="translate(1 2)"/>
</clipPath>
<clipPath id="clip1_184_11477">
<rect width="22" height="20.9662" fill="white" transform="translate(1 2)"/>
</clipPath>
</defs>
</svg>
