<svg width="16" height="16" viewBox="0 0 16 16" fill="none" xmlns="http://www.w3.org/2000/svg">
<path fill-rule="evenodd" clip-rule="evenodd" d="M7.32198 2.52772C4.67095 2.52772 2.52186 4.67681 2.52186 7.32784C2.52186 9.97888 4.67095 12.128 7.32198 12.128C9.97302 12.128 12.1221 9.97888 12.1221 7.32784C12.1221 4.67681 9.97302 2.52772 7.32198 2.52772ZM1.15039 7.32784C1.15039 3.91937 3.91351 1.15625 7.32198 1.15625C10.7305 1.15625 13.4936 3.91937 13.4936 7.32784C13.4936 10.7363 10.7305 13.4994 7.32198 13.4994C3.91351 13.4994 1.15039 10.7363 1.15039 7.32784Z" fill="white"/>
<path fill-rule="evenodd" clip-rule="evenodd" d="M10.9528 10.9352C11.2206 10.6674 11.6548 10.6674 11.9226 10.9352L14.6655 13.6782C14.9333 13.9459 14.9333 14.3801 14.6655 14.6479C14.3977 14.9157 13.9635 14.9157 13.6957 14.6479L10.9528 11.905C10.685 11.6372 10.685 11.203 10.9528 10.9352Z" fill="white"/>
</svg>
