<svg width="24" height="24" viewBox="0 0 24 24" fill="none" xmlns="http://www.w3.org/2000/svg">
<path fill-rule="evenodd" clip-rule="evenodd" d="M12 3.98438C10.6376 3.98438 9.57143 5.05873 9.57143 6.33732C9.57143 7.6159 10.6376 8.69026 12 8.69026C13.3624 8.69026 14.4286 7.6159 14.4286 6.33732C14.4286 5.05873 13.3624 3.98438 12 3.98438ZM7.57143 6.33732C7.57143 3.91234 9.57531 1.98438 12 1.98438C14.4247 1.98438 16.4286 3.91234 16.4286 6.33732C16.4286 8.76229 14.4247 10.6903 12 10.6903C9.57531 10.6903 7.57143 8.76229 7.57143 6.33732ZM3 20.3079C3 15.7225 6.79475 12.0432 11.4286 12.0432H12.5714C17.2053 12.0432 21 15.7225 21 20.3079V20.8667C21 22.0572 20.0195 22.9844 18.8571 22.9844H5.14286C3.98054 22.9844 3 22.0572 3 20.8667V20.3079ZM11.4286 14.0432C7.85702 14.0432 5 16.8689 5 20.3079V20.8667C5 20.9108 5.04281 20.9844 5.14286 20.9844H18.8571C18.9572 20.9844 19 20.9108 19 20.8667V20.3079C19 16.8689 16.143 14.0432 12.5714 14.0432H11.4286Z" fill="#111111"/>
</svg>
