<svg width="185" height="60" viewBox="0 0 185 60" fill="none" xmlns="http://www.w3.org/2000/svg">
<g clip-path="url(#clip0_183_11356)">
<path d="M116.355 28.7667L115.822 28.5222L116.355 28.2778C117.16 27.9 118.693 26.6 118.693 24.4C118.693 21.0555 116.453 19.0667 112.711 19.0667H103.596V38.4778H113.048C116.703 38.4778 118.976 36.3778 118.976 33C118.976 30.5 117.551 29.3111 116.355 28.7667ZM106.815 22.0111H112.406C114.168 22.0111 115.267 22.9889 115.267 24.5778C115.267 26.1667 114.168 27.1444 112.406 27.1444H106.815V22V22.0111ZM112.656 35.5444H106.815V30.1111H112.656C114.408 30.1111 115.55 31.1778 115.55 32.8111C115.55 34.4444 114.419 35.5444 112.656 35.5444Z" fill="#0082FF"/>
<path d="M181.608 28.0223L181.575 28.0001C181.412 27.9223 181.238 27.8668 181.075 27.8112L181.01 27.789C179.987 27.4223 179.084 27.2446 178.018 27.0557C177.213 26.9112 176.648 26.7557 175.93 26.5446C174.57 26.1668 173.918 25.4557 173.918 24.3557C173.918 23.0779 175.016 21.7112 177.42 21.7112C179.661 21.7112 181.031 22.8335 181.195 24.8001H184.545C184.36 22.5557 182.696 19.0112 177.42 19.0112C172.873 19.0112 170.437 21.589 170.383 24.1223C170.328 26.589 171.568 28.1668 174.385 29.2223C174.614 29.3112 174.875 29.3668 175.136 29.4335L175.277 29.4668C175.93 29.6557 176.626 29.8112 177.355 29.9557C178.203 30.1112 178.932 30.2446 179.509 30.4668C180.781 30.8335 181.379 31.6001 181.379 32.8779C181.379 34.2223 180.259 35.6779 177.79 35.6779C175.321 35.6779 173.896 34.3335 173.896 31.9779V31.889H170.47V31.9779C170.47 34.2557 172.003 38.5779 177.801 38.5779C182.467 38.5779 184.958 35.8335 185.023 33.1223C185.067 31.0223 183.74 29.0223 181.63 28.0446L181.608 28.0223Z" fill="#0082FF"/>
<path d="M170.154 19.2666L166.031 19.2444L159.037 28.7666L167.619 38.2777L171.47 38.2666L163.04 28.6999L170.154 19.2666Z" fill="#0082FF"/>
<path d="M158.744 19.2556H155.535V38.2667H158.744V19.2556Z" fill="#0082FF"/>
<path d="M128.221 19C123.044 19 119.824 22.7111 119.824 28.6889C119.824 34.6667 123.044 38.5667 128.221 38.5667C133.399 38.5667 136.575 34.7778 136.575 28.6889C136.575 22.6 133.301 19 128.221 19ZM128.221 35.3667C125.154 35.3667 123.251 32.8222 123.251 28.7111C123.251 24.6 125.154 22.1889 128.221 22.1889C131.289 22.1889 133.16 24.7556 133.16 28.7111C133.16 32.6667 131.267 35.3667 128.221 35.3667Z" fill="#0082FF"/>
<path d="M145.864 19C140.686 19 137.467 22.7111 137.467 28.6889C137.467 34.6667 140.686 38.5667 145.864 38.5667C151.042 38.5667 154.218 34.7778 154.218 28.6889C154.218 22.6 150.944 19 145.864 19ZM145.864 35.5222C142.797 35.5222 140.893 32.9111 140.893 28.7222C140.893 24.5333 142.797 22.0556 145.864 22.0556C148.931 22.0556 150.802 24.6778 150.802 28.7222C150.802 32.7667 148.91 35.5222 145.864 35.5222Z" fill="#0082FF"/>
<path d="M96.8954 19.0779V27.1668V29.5557V36.0334V36.1445H86.6055V29.6557V27.2668V22.0557H93.741V19.6223H83.2988V38.6223H96.8954V41.0001H100.213V19.0779H96.8954Z" fill="black"/>
<path d="M18.2527 19.0779H15.207V41.0112H18.2527V19.0779Z" fill="black"/>
<path d="M10.9099 26.3445H8.58214V19.6779V19.6112H0V21.3779V38.5779H8.58214V28.7668H10.9099V40.989H13.9555V19.0779H10.9099V26.3557V26.3445ZM5.54739 36.1557H3.04563V22.0445H5.54739V36.1557Z" fill="black"/>
<path d="M37.6237 19.0667H34.5781V41H37.6237V29.0444V28.7778H39.9515V26.3444H37.6237V19.0667Z" fill="black"/>
<path d="M20.9488 22.0444H28.9218V25.4778C28.911 35 20.666 37.3444 20.666 37.3444L22.0692 39.3444C22.0692 39.3444 32.1633 37.6111 32.1633 23.8333V19.6111H20.9379V22.0444H20.9488Z" fill="black"/>
<path d="M77.2941 26.3445H74.0309V28.7668H77.2941V36.0334V36.1557H66.2754V29.1779H72.3014V26.7445H66.2754V22.0334H74.3898V19.6112H62.9688V38.6223H77.2941V41.0001H80.6116V19.0779H77.2941V26.3445Z" fill="black"/>
<path d="M60.7494 36.7666H40.9746V39.2222H60.7494V36.7666Z" fill="black"/>
<path d="M52.4394 21.1776V19.5554H49.2742V21.1888C49.2742 25.2665 46.011 28.8221 40.964 30.2443L40.877 30.2665L42.291 32.4665L42.3127 32.4999H42.3563C43.9335 32.0999 45.7282 31.2443 47.2836 30.1443C48.937 28.9776 50.1987 27.611 50.8514 26.2888C52.3089 29.2221 56.3879 31.811 59.3791 32.5332H59.4226L60.8149 30.3776L60.8584 30.2999L60.7714 30.2776C55.7135 28.8443 52.4394 25.2665 52.4394 21.1665V21.1776Z" fill="black"/>
</g>
<defs>
<clipPath id="clip0_183_11356">
<rect width="185" height="22" fill="white" transform="translate(0 19)"/>
</clipPath>
</defs>
</svg>
