<svg width="60" height="60" viewBox="0 0 60 60" fill="none" xmlns="http://www.w3.org/2000/svg">
<g clip-path="url(#clip0_93_545)">
<path d="M21.1262 37.1433C21.2237 37.1433 21.3211 37.1343 21.4185 37.1144L25.6444 36.2693C27.7394 35.8507 29.6465 34.8305 31.1579 33.3191L38.3249 26.1521C40.4369 24.1257 40.4369 20.4795 38.3249 18.4531C36.2985 16.3412 32.6523 16.3412 30.6259 18.4531L23.4589 25.6201C21.9475 27.1315 20.9273 29.0376 20.5087 31.1336L19.6636 35.3595C19.5661 35.8477 19.7193 36.3538 20.0722 36.7058C20.3546 36.9882 20.7354 37.1423 21.1262 37.1423V37.1433ZM23.433 31.7183C23.7363 30.202 24.4741 28.8228 25.5668 27.7301L32.7339 20.563C33.1982 20.0977 33.8167 19.8422 34.4739 19.8422C35.1312 19.8422 35.7497 20.0977 36.214 20.563C37.1685 21.4788 37.1685 23.1274 36.214 24.0431L29.047 31.2102C27.9542 32.3039 26.5751 33.0417 25.0587 33.344L23.0264 33.7507L23.433 31.7183Z" fill="#0082FF"/>
<path d="M41.3367 40.1309H18.6663C16.6876 40.2094 16.6886 43.0363 18.6663 43.1138H41.3367C42.16 43.1138 42.8282 42.4466 42.8282 41.6223C42.8282 40.798 42.16 40.1309 41.3367 40.1309Z" fill="#111111"/>
<path d="M40.1431 10.8984H19.859C14.9252 10.8984 10.9102 14.9135 10.9102 19.8473V40.1314C10.9102 45.0652 14.9252 49.0803 19.859 49.0803H40.1431C45.0769 49.0803 49.092 45.0652 49.092 40.1314V19.8473C49.092 14.9135 45.0769 10.8984 40.1431 10.8984ZM46.109 40.1314C46.109 43.4216 43.4333 46.0973 40.1431 46.0973H19.859C16.5688 46.0973 13.8931 43.4216 13.8931 40.1314V19.8473C13.8931 16.5571 16.5688 13.8814 19.859 13.8814H40.1431C43.4333 13.8814 46.109 16.5571 46.109 19.8473V40.1314Z" fill="#111111"/>
</g>
<defs>
<clipPath id="clip0_93_545">
<rect width="38.1818" height="38.1818" fill="white" transform="translate(10.9102 10.8984)"/>
</clipPath>
</defs>
</svg>
