<svg width="60" height="60" viewBox="0 0 60 60" fill="none" xmlns="http://www.w3.org/2000/svg">
<g clip-path="url(#clip0_93_579)">
<path d="M39.2109 10.5H19.2891C14.4434 10.5 10.5 14.4434 10.5 19.2891V39.2109C10.5 44.0566 14.4434 48 19.2891 48H39.2109C44.0566 48 48 44.0566 48 39.2109V19.2891C48 14.4434 44.0566 10.5 39.2109 10.5ZM45.0703 39.2109C45.0703 42.4424 42.4424 45.0703 39.2109 45.0703H19.2891C16.0576 45.0703 13.4297 42.4424 13.4297 39.2109V19.2891C13.4297 16.0576 16.0576 13.4297 19.2891 13.4297H39.2109C42.4424 13.4297 45.0703 16.0576 45.0703 19.2891V39.2109Z" fill="#111111"/>
<path d="M30.0578 18.4118C29.1568 18.2476 28.2306 18.2835 27.345 18.5168C26.4593 18.7502 25.6358 19.1754 24.9326 19.7623C24.2295 20.3491 23.6639 21.0834 23.276 21.913C22.888 22.7427 22.6871 23.6475 22.6875 24.5633C22.6875 24.9777 22.8521 25.3752 23.1451 25.6682C23.4382 25.9612 23.8356 26.1258 24.25 26.1258C24.6644 26.1258 25.0618 25.9612 25.3549 25.6682C25.6479 25.3752 25.8125 24.9777 25.8125 24.5633C25.8121 24.1036 25.9132 23.6495 26.1084 23.2333C26.3037 22.8171 26.5884 22.4491 26.9422 22.1556C27.296 21.862 27.7103 21.6502 28.1554 21.5351C28.6004 21.4201 29.0654 21.4046 29.5172 21.4899C30.1355 21.6103 30.7038 21.9125 31.1492 22.3579C31.5946 22.8033 31.8968 23.3716 32.0172 23.9899C32.1508 24.6955 32.0373 25.4256 31.6958 26.0573C31.3544 26.6891 30.8057 27.1839 30.1422 27.4586C29.31 27.8138 28.6024 28.4088 28.1096 29.1676C27.6167 29.9265 27.361 30.8149 27.375 31.7196V32.3758C27.375 32.7902 27.5396 33.1877 27.8326 33.4807C28.1257 33.7737 28.5231 33.9383 28.9375 33.9383C29.3519 33.9383 29.7493 33.7737 30.0424 33.4807C30.3354 33.1877 30.5 32.7902 30.5 32.3758V31.7196C30.4883 31.4347 30.56 31.1525 30.7062 30.9078C30.8525 30.663 31.067 30.4662 31.3234 30.3415C32.573 29.8272 33.6223 28.9217 34.3139 27.7609C35.0056 26.6 35.3023 25.2462 35.1598 23.9025C35.0172 22.5587 34.443 21.2974 33.5232 20.3075C32.6034 19.3176 31.3875 18.6524 30.0578 18.4118Z" fill="#0082FF"/>
<path d="M28.9375 40.1855C29.8004 40.1855 30.5 39.486 30.5 38.623C30.5 37.7601 29.8004 37.0605 28.9375 37.0605C28.0746 37.0605 27.375 37.7601 27.375 38.623C27.375 39.486 28.0746 40.1855 28.9375 40.1855Z" fill="#0082FF"/>
</g>
<defs>
<clipPath id="clip0_93_579">
<rect width="37.5" height="37.5" fill="white" transform="translate(10.5 10.5)"/>
</clipPath>
</defs>
</svg>
