<svg width="60" height="60" viewBox="0 0 60 60" fill="none" xmlns="http://www.w3.org/2000/svg">
<g clip-path="url(#clip0_93_561)">
<path d="M30.4115 23.2063C30.4115 22.383 29.7443 21.7148 28.92 21.7148C23.9007 21.7148 19.1269 23.612 15.4788 27.0583C14.8802 27.6241 14.8534 28.5677 15.4191 29.1663C15.7124 29.4765 16.1072 29.6336 16.5039 29.6336C16.8718 29.6336 17.2397 29.4994 17.5281 29.2269C20.6194 26.3066 24.6653 24.6978 28.92 24.6978C29.7443 24.6978 30.4115 24.0296 30.4115 23.2063Z" fill="#0082FF"/>
<path d="M30.4488 17.2415C30.4488 16.4182 29.7817 15.75 28.9574 15.75C22.38 15.75 16.1376 18.2278 11.3768 22.7281C10.7783 23.2939 10.7524 24.2375 11.3172 24.8361C11.6105 25.1463 12.0062 25.3034 12.402 25.3034C12.7699 25.3034 13.1378 25.1682 13.4261 24.8957C17.6301 20.9224 23.1456 18.733 28.9574 18.733C29.7817 18.733 30.4488 18.0658 30.4488 17.2415Z" fill="#0082FF"/>
<path d="M28.9189 30.5923C29.7432 30.5923 30.4104 29.9241 30.4104 29.1009C30.4104 28.2776 29.7432 27.6094 28.9189 27.6094C25.4378 27.6094 22.1217 28.9169 19.5793 31.2923C18.9777 31.8541 18.9449 32.7987 19.5077 33.4003C19.801 33.7145 20.1987 33.8736 20.5974 33.8736C20.9624 33.8736 21.3273 33.7403 21.6146 33.4719C23.6023 31.6155 26.1964 30.5923 28.9179 30.5923H28.9189Z" fill="#0082FF"/>
<path d="M47.8563 12.8415C47.0728 12.1783 46.0437 11.8949 45.0335 12.0649C44.6188 12.1345 44.1903 12.1713 43.7945 12.1713H43.7826C42.4075 12.1713 41.0452 11.8591 40.57 11.5678C37.6516 9.71438 33.6773 11.9426 33.736 15.3989V35.1709C28.7286 31.1608 21.0952 34.8209 21.1261 41.2929C21.5288 51.5056 36.0448 51.6816 36.709 41.4998C36.716 41.4441 36.719 15.3989 36.719 15.3989C36.719 14.6015 37.2579 14.2137 37.4896 14.0844C37.7212 13.9542 38.3337 13.6966 39.0139 14.1132C40.1911 14.8331 42.2553 15.1553 43.7846 15.1553H43.7985C44.3553 15.1553 44.9529 15.1036 45.5256 15.0081C45.7225 14.9753 45.8627 15.0638 45.9283 15.1195C45.996 15.1762 46.1083 15.3024 46.1083 15.5073V19.2608C46.1083 19.4846 45.9641 19.6824 45.7573 19.7421C45.4242 19.8395 44.7123 20.0026 43.6852 20.0026C42.9166 20.0026 41.8874 19.578 41.5543 19.414C39.7496 18.6026 38.4898 21.1292 40.2219 22.0827C42.0555 23.0094 44.2151 23.2828 46.5935 22.6067C48.0641 22.1772 49.0913 20.802 49.0913 19.2618V15.5083C49.0913 14.4801 48.6408 13.5087 47.8563 12.8435V12.8415ZM28.9195 46.1025C26.2677 46.1025 24.109 43.9448 24.109 41.2919C24.3735 34.9114 33.4656 34.9124 33.7291 41.2919C33.7291 43.9448 31.5714 46.1025 28.9195 46.1025Z" fill="#111111"/>
</g>
<defs>
<clipPath id="clip0_93_561">
<rect width="38.1818" height="38.146" fill="white" transform="translate(10.9102 10.8984)"/>
</clipPath>
</defs>
</svg>
