<svg width="60" height="60" viewBox="0 0 60 60" fill="none" xmlns="http://www.w3.org/2000/svg">
<g clip-path="url(#clip0_93_553)">
<path d="M24.0751 10.8984H22.5836C17.6498 10.8984 13.6348 14.9135 13.6348 19.8473V40.1314C13.6348 45.0652 17.6498 49.0803 22.5836 49.0803H24.0751C24.8984 49.0803 25.5666 48.4121 25.5666 47.5888V12.3899C25.5666 11.5656 24.8984 10.8984 24.0751 10.8984ZM22.5836 46.0973C19.2934 46.0973 16.6177 43.4216 16.6177 40.1314V19.8473C16.6177 16.5571 19.2934 13.8814 22.5836 13.8814V46.0973Z" fill="#111111"/>
<path d="M43.9881 12.6919C43.3298 12.1967 42.3942 12.3299 41.9 12.9882C41.4058 13.6464 41.5381 14.5811 42.1963 15.0762C43.7126 16.2157 44.5827 17.9558 44.5827 19.85V40.1341C44.5827 43.4243 41.907 46.1 38.6168 46.1H30.0408C28.0631 46.1775 28.0621 49.0044 30.0408 49.0829H38.6168C43.5506 49.0829 47.5656 45.0679 47.5656 40.1341V19.85C47.5656 17.0092 46.2611 14.4001 43.9881 12.6919Z" fill="#111111"/>
<path d="M32.8368 27.5115L33.7695 26.6504L34.7022 27.5115C35.1834 27.9609 35.8079 28.1976 36.4412 28.1976C36.7823 28.1976 37.1263 28.129 37.4535 27.9888C38.3871 27.5851 38.9897 26.6673 38.9897 25.6501V12.3899C38.9897 11.5656 38.3215 10.8984 37.4982 10.8984H30.0408C29.2175 10.8984 28.5493 11.5656 28.5493 12.3899V25.6491C28.5394 27.8585 31.228 29.0278 32.8368 27.5115ZM31.5323 13.8814H36.0067V24.6558L34.7817 23.5243C34.4964 23.2608 34.1334 23.1286 33.7695 23.1286C33.4056 23.1286 33.0437 23.2608 32.7573 23.5243L31.5323 24.6558V13.8814Z" fill="#0082FF"/>
</g>
<defs>
<clipPath id="clip0_93_553">
<rect width="33.9311" height="38.1818" fill="white" transform="translate(13.6348 10.8984)"/>
</clipPath>
</defs>
</svg>
