<svg width="60" height="60" viewBox="0 0 60 60" fill="none" xmlns="http://www.w3.org/2000/svg">
<g clip-path="url(#clip0_93_570)">
<path d="M23.7556 26.7022C24.5789 26.7022 25.2461 26.035 25.2461 25.2118V21.1122C25.1676 19.1335 22.3427 19.1355 22.2642 21.1122V25.2118C22.2642 26.035 22.9313 26.7022 23.7556 26.7022Z" fill="#0082FF"/>
<path d="M36.5578 30.591C35.8637 30.1485 34.942 30.3533 34.4995 31.0483C31.791 34.9391 27.0988 34.793 24.4171 31.0483C23.9747 30.3543 23.0539 30.1485 22.3589 30.591C21.6639 31.0324 21.459 31.9542 21.9015 32.6492C22.0129 32.8232 24.7473 36.9178 29.4961 36.9178C34.245 36.9178 36.9048 32.8242 37.0151 32.6492C37.4576 31.9542 37.2528 31.0334 36.5578 30.591Z" fill="#0082FF"/>
<path d="M36.8008 25.2118V21.1122C36.7223 19.1355 33.8974 19.1335 33.8188 21.1122V25.2118C33.8188 26.035 34.486 26.7022 35.3093 26.7022C36.1326 26.7022 36.8008 26.035 36.8008 25.2118Z" fill="#0082FF"/>
<path d="M37.7697 10.8984H21.2203C16.2885 10.8984 12.2754 14.9115 12.2754 19.8433V36.3928C12.2754 41.3256 16.2885 45.3386 21.2203 45.3386H32.7007C34.6774 45.2601 34.6784 42.4352 32.7007 42.3567H21.2203C17.9321 42.3567 15.2564 39.681 15.2564 36.3928V19.8433C15.2564 16.5551 17.9321 13.8794 21.2203 13.8794H37.7697C41.0579 13.8794 43.7336 16.5551 43.7336 19.8433V45.793C43.7336 45.8408 43.7336 45.9869 43.5566 46.0655C43.3797 46.144 43.2713 46.0466 43.2355 46.0148C43.2315 46.0118 43.2265 46.0078 43.2235 46.0038L39.4998 42.7276C38.8814 42.1837 37.9397 42.2443 37.3958 42.8618C36.852 43.4803 36.9126 44.4219 37.5301 44.9658L41.2478 48.2371C41.8673 48.7919 42.6359 49.0793 43.4224 49.0793C43.8748 49.0793 44.3322 48.9838 44.7697 48.7889C45.9699 48.254 46.7156 47.1065 46.7156 45.793V19.8433C46.7156 14.9105 42.7025 10.8984 37.7707 10.8984H37.7697Z" fill="#111111"/>
</g>
<defs>
<clipPath id="clip0_93_570">
<rect width="34.4402" height="38.1818" fill="white" transform="translate(12.2754 10.8984)"/>
</clipPath>
</defs>
</svg>
