<svg width="60" height="60" viewBox="0 0 60 60" fill="none" xmlns="http://www.w3.org/2000/svg">
<g clip-path="url(#clip0_93_587)">
<path d="M29.3218 27.4219C28.311 27.4219 27.4907 28.2412 27.4907 29.2529C27.5874 31.6816 31.0562 31.6807 31.1528 29.2529C31.1528 28.2412 30.3325 27.4219 29.3218 27.4219Z" fill="#0082FF"/>
<path d="M23.0233 27.4219C20.5956 27.5176 20.5946 30.9873 23.0233 31.084C24.035 31.084 24.8544 30.2637 24.8544 29.2529C24.8544 28.2422 24.035 27.4219 23.0233 27.4219Z" fill="#0082FF"/>
<path d="M35.6191 27.4219C34.6074 27.4219 33.7881 28.2412 33.7881 29.2529C33.8848 31.6816 37.3535 31.6807 37.4502 29.2529C37.4502 28.2412 36.6309 27.4219 35.6191 27.4219Z" fill="#0082FF"/>
<path d="M42.5757 16.0312C30.7671 4.16111 10.3853 12.6767 10.5005 29.4258V46.5322C10.5005 47.125 10.8569 47.6591 11.4038 47.8857C11.5854 47.9609 11.7749 47.997 11.9644 47.997C12.3452 47.997 12.7202 47.8486 13.0005 47.5683L13.2866 47.2822C15.2827 45.2851 18.2974 44.7822 20.7866 46.0302C23.3921 47.3359 26.2095 47.998 29.1606 47.997C45.8228 48.0117 54.2573 27.8857 42.5747 16.0322L42.5757 16.0312ZM29.1782 45.0664C26.6812 45.0683 24.2983 44.5117 22.1001 43.4091C20.77 42.7422 19.3394 42.4189 17.9165 42.4189C16.3618 42.4189 14.8179 42.8066 13.4302 43.5566V29.4179C13.4302 29.4179 13.4302 29.4082 13.4302 29.4043C13.3579 15.2529 30.4927 8.08396 40.4936 18.0927C50.354 27.9843 43.1792 45.0879 29.1772 45.0664H29.1782Z" fill="#111111"/>
</g>
<defs>
<clipPath id="clip0_93_587">
<rect width="37.5" height="37.4961" fill="white" transform="translate(10.5 10.5)"/>
</clipPath>
</defs>
</svg>
