<svg width="22" height="18" viewBox="0 0 22 18" fill="none" xmlns="http://www.w3.org/2000/svg">
<g clip-path="url(#clip0_62_8716)">
<path d="M21.5615 3.67C21.4371 3.20196 21.192 2.7748 20.8506 2.43127C20.5093 2.08773 20.0837 1.83988 19.6165 1.7125C17.8965 1.25 11.0215 1.25 11.0215 1.25C11.0215 1.25 4.14648 1.25 2.42648 1.7125C1.95925 1.83988 1.53367 2.08773 1.19233 2.43127C0.850991 2.7748 0.605864 3.20196 0.481484 3.67C0.0214844 5.3975 0.0214844 9 0.0214844 9C0.0214844 9 0.0214844 12.6025 0.481484 14.33C0.605864 14.798 0.850991 15.2252 1.19233 15.5687C1.53367 15.9123 1.95925 16.1601 2.42648 16.2875C4.14648 16.75 11.0215 16.75 11.0215 16.75C11.0215 16.75 17.8965 16.75 19.6165 16.2875C20.0837 16.1601 20.5093 15.9123 20.8506 15.5687C21.192 15.2252 21.4371 14.798 21.5615 14.33C22.0215 12.6025 22.0215 9 22.0215 9C22.0215 9 22.0215 5.3975 21.5615 3.67Z" fill="#FF0302"/>
<path d="M8.77148 12.2713V5.72879L14.5215 9.00004L8.77148 12.2713Z" fill="#FEFEFE"/>
</g>
<defs>
<clipPath id="clip0_62_8716">
<rect width="22" height="22" fill="white" transform="translate(0 -2)"/>
</clipPath>
</defs>
</svg>
